<svg xmlns="http://www.w3.org/2000/svg" viewBox="0 0 1200 630">
  <defs>
    <radialGradient id="bgfade" cx="50%" cy="42%" r="75%">
      <stop offset="0%" stop-color="#FFFFFF"/>
      <stop offset="100%" stop-color="#E7F3F3"/>
    </radialGradient>
  </defs>
  <rect width="1200" height="630" fill="url(#bgfade)"/>
  <g transform="translate(332.82,210.00) scale(1.5000)">
    <svg x="0" y="0" width="100" height="100" viewBox="0 0 100 100">
  <defs>
    <linearGradient id="sweep" x1="92.00" y1="50.00" x2="50.00" y2="8.00" gradientUnits="userSpaceOnUse">
      <stop offset="0%" stop-color="#1FBFAE" stop-opacity="0.65"/>
      <stop offset="100%" stop-color="#1FBFAE" stop-opacity="0"/>
    </linearGradient>
  </defs>
  
  <line x1="50.00" y1="7.00" x2="50.00" y2="1.00" stroke="#0E7C86" stroke-width="2.4" stroke-linecap="round" opacity="0.55"/>
<line x1="93.00" y1="50.00" x2="99.00" y2="50.00" stroke="#0E7C86" stroke-width="2.4" stroke-linecap="round" opacity="0.55"/>
<line x1="50.00" y1="93.00" x2="50.00" y2="99.00" stroke="#0E7C86" stroke-width="2.4" stroke-linecap="round" opacity="0.55"/>
<line x1="7.00" y1="50.00" x2="1.00" y2="50.00" stroke="#0E7C86" stroke-width="2.4" stroke-linecap="round" opacity="0.55"/>

  <circle cx="50" cy="50" r="42" fill="none" stroke="#0E7C86" stroke-width="2.6" opacity="0.9"/>
  <circle cx="50" cy="50" r="29" fill="none" stroke="#0E7C86" stroke-width="1.6" opacity="0.5"/>
  <circle cx="50" cy="50" r="16" fill="none" stroke="#0E7C86" stroke-width="1.2" opacity="0.35"/>
  <path d="M 50 50 L 50.00 8.00 A 42 42 0 0 1 92.00 50.00 Z" fill="url(#sweep)"/>
  <line x1="50" y1="50" x2="92.00" y2="50.00" stroke="#1FBFAE" stroke-width="1.6" opacity="0.85"/>
  <circle cx="74.47" cy="38.59" r="10" fill="#1FBFAE" opacity="0.18"/>
  <circle cx="74.47" cy="38.59" r="5.2" fill="#FFFFFF"/>
  <circle cx="74.47" cy="38.59" r="5.2" fill="none" stroke="#0F3A4A" stroke-width="1.4"/>
  <circle cx="50" cy="50" r="2.6" fill="#0F3A4A"/>
</svg>
  </g>
  <text x="510.82" y="306.08" font-family="Poppins" font-weight="700" font-size="62" fill="#0F3A4A">Fit</text>
  <text x="588.20" y="306.08" font-family="Poppins" font-weight="700" font-size="62" fill="#0F3A4A">Radar</text>
  <text x="781.43" y="306.08" font-family="Poppins" font-weight="700" font-size="62" fill="#1FBFAE">HR</text>
  <text x="600.00" y="430.00" text-anchor="middle" font-family="Poppins" font-weight="400" font-size="23" fill="#0E7C86" opacity="0.9">Évaluez la compatibilité poste &amp; équipe, en toute transparence</text>
</svg>